<?xml version="1.0" encoding="UTF-8" standalone="no"?>
<!DOCTYPE svg PUBLIC "-//W3C//DTD SVG 1.1//EN" "http://www.w3.org/Graphics/SVG/1.1/DTD/svg11.dtd">
<svg width="100%" height="100%" viewBox="0 0 64 64" version="1.1" xmlns="http://www.w3.org/2000/svg" xmlns:xlink="http://www.w3.org/1999/xlink" xml:space="preserve" xmlns:serif="http://www.serif.com/" style="fill-rule:evenodd;clip-rule:evenodd;stroke-linejoin:round;stroke-miterlimit:2;">
    <circle cx="32" cy="32" r="32" style="fill:rgb(130,35,210);"/>
    <g transform="matrix(2.90909,0,0,2.90909,-2.90909,-2.90913)">
        <g transform="matrix(0.876143,0,0,0.876143,1.48628,1.4863)">
            <path d="M9,7.539L15,21.539L18.659,13L23,13L23,11L17.341,11L15,16.461L9,2.461L5.341,11L1,11L1,13L6.659,13L9,7.539Z" style="fill:white;fill-rule:nonzero;"/>
        </g>
        <g transform="matrix(0.34375,0,0,0.34375,-25.2445,1.00001)">
            <path d="M140.247,29.451C140.314,30.291 140.348,31.142 140.348,32C140.348,32.858 140.314,33.709 140.247,34.549L136.384,34.549L136.384,29.451L140.247,29.451Z" style="fill:white;"/>
        </g>
        <g transform="matrix(-0.34375,-4.20972e-17,4.20972e-17,-0.34375,49.2445,23)">
            <path d="M140.247,29.451C140.314,30.291 140.348,31.142 140.348,32C140.348,32.858 140.314,33.709 140.247,34.549L136.384,34.549L136.384,29.451L140.247,29.451Z" style="fill:white;"/>
        </g>
    </g>
</svg>
